<svg xmlns="http://www.w3.org/2000/svg" viewBox="0 0 1000 1000" width="1000" height="1000">
	<defs>
		<clipPath clipPathUnits="userSpaceOnUse" id="cp1">
			<path d="M0 0L1000 0L1000 1000L0 1000Z" />
		</clipPath>
	</defs>
	<style>
		tspan { white-space:pre }
		.shp0 { fill: #00ccff } 
		.shp1 { fill: #2ce7c7 } 
	</style>
	<g id="Page 1" clip-path="url(#cp1)">
		<path id="Path 2" class="shp0" d="M1000 1000L1000 500.14C945.89 497.57 861.85 515.14 782.17 620.18C650.17 794.17 722.17 863.16 533.18 938.16C494.07 953.68 461.54 975.37 434.5 1000L1000 1000Z" />
		<path id="Path 3" class="shp1" d="M0 0L0 501.33C15.18 498.64 30.93 494.35 47.2 488.18C221.2 422.18 164.2 143.2 320.19 98.2C393.4 77.08 431.59 36.8 451.5 0L0 0Z" />
		<path id="Path 4" class="shp0" d="M462 929C462 949.43 445.43 966 425 966C404.57 966 388 949.43 388 929C388 908.57 404.57 892 425 892C445.43 892 462 908.57 462 929Z" />
		<path id="Path 5" class="shp1" d="M532.81 11.05C532.81 57.54 570.5 95.23 616.99 95.23C663.48 95.23 701.17 57.54 701.17 11.05C701.17 7.3 700.9 3.62 700.43 0L533.55 0C533.08 3.62 532.81 7.3 532.81 11.05Z" />
		<path id="Path 6" class="shp0" d="M346 959C346 967.29 339.28 974 331 974C322.72 974 316 967.29 316 959C316 950.71 322.72 944 331 944C339.28 944 346 950.71 346 959Z" />
		<path id="Path 7" class="shp1" d="M767.17 44.2C767.17 52.49 760.45 59.2 752.17 59.2C743.88 59.2 737.17 52.49 737.17 44.2C737.17 35.92 743.88 29.2 752.17 29.2C760.45 29.2 767.17 35.92 767.17 44.2Z" />
	</g>
</svg>